<svg xmlns="http://www.w3.org/2000/svg" version="1.1" xmlns:xlink="http://www.w3.org/1999/xlink" xmlns:svgjs="http://svgjs.dev/svgjs" width="1500" height="1500" viewBox="0 0 1500 1500"><rect width="1500" height="1500" fill="#ffffff"></rect><g transform="matrix(0.6666666666666666,0,0,0.6666666666666666,250.10666666666668,582.1072133333332)"><svg viewBox="0 0 375 126" data-background-color="#ffffff" preserveAspectRatio="xMidYMid meet" height="504" width="1500" xmlns="http://www.w3.org/2000/svg" xmlns:xlink="http://www.w3.org/1999/xlink"><g id="tight-bounds" transform="matrix(1,0,0,1,-0.03976000000000113,-0.04020499999998606)"><svg viewBox="0 0 375.07953 126.08040999999999" height="126.08040999999999" width="375.07953"><g><svg></svg></g><g><svg viewBox="0 0 375.07953 126.08040999999999" height="126.08040999999999" width="375.07953"><g transform="matrix(1,0,0,1,-10.22024,-67.73568999999999)"><path d="M10.22 179.464v-111.728h375.08v111.728h-78.375l0-4.221h74.153v-103.286h-366.636v103.286l74.153 0 0 4.221z" fill="#000000" fill-rule="nonzero" stroke="none" stroke-width="1" stroke-linecap="butt" stroke-linejoin="miter" stroke-miterlimit="10" stroke-dasharray="" stroke-dashoffset="0" font-family="none" font-weight="none" font-size="none" text-anchor="none" style="mix-blend-mode: normal" data-fill-palette-color="tertiary"></path><g><path d="M101.26 185.21v-15.714h1.83l0.574 1.335c2.024-1.103 3.87-1.655 5.537-1.655v0c0.856 0 1.603 0.135 2.242 0.404 0.634 0.274 1.127 0.615 1.479 1.023 0.352 0.408 0.63 0.921 0.833 1.538 0.208 0.621 0.341 1.214 0.398 1.778 0.061 0.56 0.091 1.201 0.091 1.922v0 9.369h-2.612v-9.545c0-2.758-1.188-4.137-3.564-4.137v0c-1.229 0-2.628 0.408-4.196 1.225v0 12.457zM126.727 169.196v0c0.764 0 1.451 0.091 2.059 0.273 0.612 0.187 1.118 0.423 1.518 0.711 0.404 0.287 0.751 0.66 1.042 1.12 0.295 0.46 0.519 0.906 0.671 1.336 0.152 0.43 0.271 0.947 0.358 1.55 0.083 0.604 0.135 1.129 0.157 1.577 0.022 0.443 0.033 0.969 0.032 1.577v0 1.237h-10.802c0 0.573 0.13 1.142 0.391 1.707 0.261 0.569 0.628 1.09 1.101 1.564 0.469 0.469 1.088 0.853 1.857 1.153 0.769 0.295 1.62 0.443 2.554 0.443v0c1.103 0 2.298-0.191 3.583-0.573v0l0.456 1.785c-1.707 0.582-3.381 0.873-5.023 0.873v0c-1.155 0-2.183-0.154-3.081-0.463-0.895-0.308-1.616-0.708-2.163-1.198-0.543-0.495-0.99-1.088-1.342-1.779-0.347-0.686-0.589-1.373-0.724-2.059-0.135-0.682-0.202-1.405-0.202-2.169v0c0-1.177 0.143-2.254 0.43-3.232 0.287-0.973 0.675-1.792 1.167-2.456 0.486-0.66 1.055-1.218 1.707-1.674 0.651-0.456 1.336-0.788 2.052-0.997 0.717-0.204 1.451-0.306 2.202-0.306zM126.173 171.45v0c-0.934 0-1.737 0.258-2.41 0.775-0.673 0.513-1.164 1.151-1.473 1.916-0.308 0.764-0.463 1.585-0.462 2.462v0h8.208c0-3.436-1.288-5.153-3.863-5.153zM146.689 169.496h2.704l-5.519 15.714h-2.703l-5.506-15.714h2.867l4.072 13.121zM160.051 169.196v0c0.764 0 1.451 0.091 2.059 0.273 0.608 0.187 1.114 0.423 1.518 0.711 0.404 0.287 0.751 0.66 1.042 1.12 0.291 0.46 0.515 0.906 0.671 1.336 0.152 0.43 0.271 0.947 0.359 1.55 0.083 0.604 0.135 1.129 0.156 1.577 0.022 0.443 0.033 0.969 0.033 1.577v0 1.237h-10.802c0 0.573 0.13 1.142 0.391 1.707 0.261 0.569 0.625 1.09 1.094 1.564 0.473 0.469 1.095 0.853 1.863 1.153 0.769 0.295 1.62 0.443 2.554 0.443v0c1.103 0 2.295-0.191 3.577-0.573v0l0.463 1.785c-1.707 0.582-3.381 0.873-5.023 0.873v0c-1.16 0-2.187-0.154-3.082-0.463-0.895-0.308-1.616-0.708-2.163-1.198-0.547-0.495-0.995-1.088-1.342-1.779-0.352-0.686-0.593-1.373-0.723-2.059-0.135-0.682-0.202-1.405-0.202-2.169v0c0-1.177 0.143-2.254 0.43-3.232 0.287-0.973 0.673-1.792 1.159-2.456 0.491-0.66 1.062-1.218 1.714-1.674 0.651-0.456 1.336-0.788 2.052-0.997 0.717-0.204 1.451-0.306 2.202-0.306zM159.491 171.45v0c-0.929 0-1.731 0.258-2.404 0.775-0.673 0.513-1.164 1.151-1.473 1.916-0.308 0.764-0.463 1.585-0.462 2.462v0h8.209c0-3.436-1.29-5.153-3.87-5.153zM172.645 169.496l0.495 1.179c1.325-0.986 2.788-1.479 4.391-1.479v0c1.103 0 2.104 0.206 3.003 0.619v0l-0.795 2.085c-0.825-0.321-1.683-0.482-2.573-0.483v0c-1.325 0-2.571 0.367-3.74 1.102v0 12.691h-2.606v-15.714zM198.939 169.176v0c1.251 0 2.699 0.419 4.346 1.258v0l0.332-0.938h1.831v16.698c0 0.321-0.011 0.63-0.033 0.925-0.022 0.295-0.087 0.714-0.195 1.257-0.104 0.539-0.252 1.032-0.443 1.479-0.191 0.443-0.48 0.923-0.867 1.44-0.387 0.513-0.843 0.945-1.368 1.296-0.526 0.347-1.203 0.638-2.033 0.873-0.834 0.235-1.766 0.352-2.795 0.352v0c-1.62 0-3.242-0.339-4.866-1.016v0l0.729-1.896c1.307 0.486 2.576 0.73 3.805 0.73v0c3.635 0 5.453-2.009 5.453-6.027v0-1.159c-1.368 0.721-2.752 1.081-4.15 1.081v0c-0.678 0-1.34-0.087-1.987-0.261-0.647-0.178-1.281-0.471-1.902-0.879-0.621-0.408-1.162-0.916-1.623-1.525-0.46-0.608-0.832-1.383-1.114-2.325-0.278-0.938-0.417-1.985-0.417-3.141v0c0-1.216 0.169-2.315 0.509-3.296 0.339-0.982 0.767-1.77 1.283-2.365 0.521-0.595 1.118-1.092 1.792-1.492 0.673-0.404 1.318-0.684 1.935-0.841 0.612-0.152 1.205-0.228 1.778-0.228zM199.102 171.294v0c-1.477 0-2.665 0.53-3.564 1.589-0.903 1.06-1.355 2.465-1.355 4.216v0c0 1.164 0.187 2.213 0.561 3.146 0.369 0.934 0.958 1.69 1.765 2.268 0.804 0.578 1.772 0.867 2.906 0.866v0c1.155 0 2.295-0.302 3.42-0.906v0-10.293c-1.451-0.591-2.695-0.886-3.733-0.886zM210.933 165.613v-3.004h3.088v3.004zM211.174 185.21v-15.714h2.606v15.714zM228.7 169.496h2.704l-5.519 15.714h-2.703l-5.506-15.714h2.867l4.072 13.121zM242.062 169.196v0c0.764 0 1.451 0.091 2.059 0.273 0.608 0.187 1.114 0.423 1.518 0.711 0.404 0.287 0.751 0.66 1.042 1.12 0.291 0.46 0.515 0.906 0.671 1.336 0.152 0.43 0.269 0.947 0.352 1.55 0.087 0.604 0.141 1.129 0.163 1.577 0.022 0.443 0.033 0.969 0.033 1.577v0 1.237h-10.802c0 0.573 0.13 1.142 0.391 1.707 0.261 0.569 0.625 1.09 1.094 1.564 0.473 0.469 1.095 0.853 1.863 1.153 0.769 0.295 1.62 0.443 2.554 0.443v0c1.103 0 2.295-0.191 3.577-0.573v0l0.463 1.785c-1.707 0.582-3.383 0.873-5.03 0.873v0c-1.155 0-2.18-0.154-3.075-0.463-0.895-0.308-1.616-0.708-2.163-1.198-0.547-0.495-0.995-1.088-1.342-1.779-0.352-0.686-0.593-1.373-0.723-2.059-0.135-0.682-0.202-1.405-0.202-2.169v0c0-1.177 0.143-2.254 0.43-3.232 0.287-0.973 0.673-1.792 1.159-2.456 0.491-0.66 1.062-1.218 1.714-1.674 0.651-0.456 1.336-0.788 2.052-0.997 0.712-0.204 1.446-0.306 2.202-0.306zM241.502 171.45v0c-0.934 0-1.737 0.258-2.411 0.775-0.673 0.513-1.162 1.151-1.466 1.916-0.308 0.764-0.463 1.585-0.462 2.462v0h8.209c0-3.436-1.29-5.153-3.87-5.153zM272.122 181.965v-12.469h2.606v15.714h-1.824l-0.56-1.323c-2.002 1.095-3.853 1.642-5.551 1.642v0c-0.86 0-1.607-0.135-2.241-0.404-0.638-0.274-1.131-0.61-1.479-1.01-0.352-0.404-0.634-0.916-0.847-1.537-0.208-0.621-0.343-1.212-0.404-1.772-0.056-0.565-0.085-1.207-0.085-1.929v0-9.381h2.606v9.577c0 2.745 1.194 4.117 3.584 4.117v0c1.229 0 2.628-0.408 4.195-1.225zM287.328 169.196v0c0.647 0 1.279 0.076 1.896 0.228 0.612 0.152 1.229 0.421 1.85 0.808 0.621 0.391 1.162 0.88 1.623 1.466 0.46 0.591 0.836 1.357 1.127 2.299 0.291 0.943 0.437 2.002 0.436 3.18v0c0 2.576-0.686 4.613-2.058 6.111-1.373 1.494-3.151 2.241-5.336 2.241v0c-1.251 0-2.517-0.282-3.798-0.847v0 8.971h-2.613v-24.157h1.818l0.43 1.003c1.481-0.869 3.023-1.303 4.625-1.303zM286.436 171.359v0c-1.155 0-2.278 0.291-3.368 0.873v0 10.483c1.134 0.508 2.274 0.762 3.42 0.762v0c0.486 0 0.958-0.054 1.414-0.163 0.456-0.104 0.921-0.298 1.394-0.58 0.469-0.278 0.88-0.63 1.231-1.055 0.347-0.426 0.634-0.988 0.86-1.688 0.222-0.699 0.332-1.49 0.332-2.371v0c0-0.995-0.117-1.874-0.351-2.639-0.235-0.764-0.532-1.368-0.893-1.811-0.36-0.447-0.784-0.814-1.27-1.101-0.486-0.287-0.953-0.476-1.401-0.567-0.443-0.096-0.899-0.143-1.368-0.143z" fill="#000000" fill-rule="nonzero" stroke="none" stroke-width="1" stroke-linecap="butt" stroke-linejoin="miter" stroke-miterlimit="10" stroke-dasharray="" stroke-dashoffset="0" font-family="none" font-weight="none" font-size="none" text-anchor="none" style="mix-blend-mode: normal" data-fill-palette-color="secondary" id="text-1"></path></g></g><g transform="matrix(1,0,0,1,29.33176499999999,39.63484433475149)"><svg viewBox="0 0 316.416 46.810721330497" height="46.810721330497" width="316.416"><g><svg viewBox="0 0 316.416 46.810721330497" height="46.810721330497" width="316.416"><g><svg viewBox="0 0 316.416 46.810721330497" height="46.810721330497" width="316.416"><g id="textblocktransform"><svg viewBox="0 0 316.416 46.810721330497" height="46.810721330497" width="316.416" id="textblock"><g><svg viewBox="0 0 316.416 46.810721330497" height="46.810721330497" width="316.416"><g transform="matrix(1,0,0,1,0,0)"><svg width="316.416" viewBox="1.95 -37.5 258.53000000000003 38.25" height="46.810721330497" data-palette-color="#6b7280"><path d="M6.05-22.25L1.95-22.25 1.95-24.3 6.05-24.3 6.05-31.5 13.55-31.5 13.55-24.3 19.2-24.3 19.2-22.25 13.55-22.25 13.55-5.55Q13.55-4.2 14.2-3.43 14.85-2.65 16.2-2.65 17.55-2.65 19.3-4.1L19.3-4.1 20.2-2.9Q16.2 0.75 12.2 0.75L12.2 0.75Q6.05 0.75 6.05-6.6L6.05-6.6 6.05-22.25ZM34.9-11.55Q38.15-11.85 39.92-14.03 41.7-16.2 41.7-18.43 41.7-20.65 40.72-21.85 39.75-23.05 37.77-23.05 35.8-23.05 34-20.25 32.2-17.45 32.2-12.75 32.2-8.05 33.9-5.2 35.6-2.35 38.75-2.35L38.75-2.35Q43.55-2.35 46.9-6.1L46.9-6.1 48.3-5.2Q46.6-2.5 43.8-0.88 41 0.75 37.5 0.75L37.5 0.75Q31.55 0.75 28-3.18 24.45-7.1 24.45-12.65 24.45-18.2 28.22-21.98 32-25.75 38.7-25.75L38.7-25.75Q43.1-25.75 45.6-23.7 48.1-21.65 48.1-18.5 48.1-15.35 45.32-12.68 42.55-10 38-10L38-10Q36.45-10 35-10.35L35-10.35 34.9-11.55ZM57.25-25L57.25-25Q61.34-25 64.65-22.5L64.65-22.5Q66.55-24.3 68.55-25.03 70.55-25.75 73.67-25.75 76.8-25.75 78.77-23.78 80.75-21.8 80.75-18.4L80.75-18.4 80.75-5.55Q80.75-4.2 81.4-3.43 82.05-2.65 83.4-2.65 84.75-2.65 86.5-4.1L86.5-4.1 87.4-2.9Q83.4 0.75 79.4 0.75L79.4 0.75Q73.25 0.75 73.25-6.6L73.25-6.6 73.25-19.45Q73.25-21 72.3-21.85 71.34-22.7 69.67-22.7 68-22.7 66.37-21.35 64.75-20 64.75-17.85L64.75-17.85 64.75 0 57.25 0 57.25-23Q55-23 53.25-22.25L53.25-22.25 52.55-24.1Q54.7-25 57.25-25ZM108.74-25L116.24-25 116.24-5.55Q116.24-4.2 116.89-3.43 117.54-2.65 118.89-2.65 120.24-2.65 121.99-4.1L121.99-4.1 122.89-2.9Q118.89 0.75 114.89 0.75L114.89 0.75Q110.14 0.75 109.04-3.7L109.04-3.7Q106.44 0.75 101.39 0.75L101.39 0.75Q95.64 0.75 92.64-2.98 89.64-6.7 89.64-12.48 89.64-18.25 92.87-22 96.09-25.75 101.89-25.75L101.89-25.75Q106.34-25.75 108.74-22.2L108.74-22.2 108.74-25ZM98.79-20.1Q97.39-17.3 97.39-12.5 97.39-7.7 98.79-4.9 100.19-2.1 103.07-2.1 105.94-2.1 107.47-4.93 108.99-7.75 108.99-12.5 108.99-17.25 107.47-20.08 105.94-22.9 103.07-22.9 100.19-22.9 98.79-20.1ZM138.44 0.75L138.44 0.75Q132.49 0.75 128.82-3.08 125.14-6.9 125.14-12.5 125.14-18.1 128.82-21.93 132.49-25.75 138.39-25.75L138.39-25.75Q141.69-25.75 144.84-23.85 147.99-21.95 147.99-18.7L147.99-18.7Q147.99-17.05 146.82-15.88 145.64-14.7 143.99-14.7 142.34-14.7 141.17-15.88 139.99-17.05 139.99-18.55 139.99-20.05 140.79-21.1 141.59-22.15 142.89-22.55L142.89-22.55Q141.49-23.15 139.69-23.15L139.69-23.15Q136.34-23.15 134.62-20.18 132.89-17.2 132.89-12.63 132.89-8.05 134.62-5.2 136.34-2.35 139.69-2.35L139.69-2.35Q144.19-2.35 147.34-6.1L147.34-6.1 148.74-5.2Q147.09-2.5 144.42-0.88 141.74 0.75 138.44 0.75ZM157.71-30.68Q156.54-31.85 156.54-33.5 156.54-35.15 157.71-36.33 158.89-37.5 160.54-37.5 162.19-37.5 163.36-36.33 164.54-35.15 164.54-33.5 164.54-31.85 163.36-30.68 162.19-29.5 160.54-29.5 158.89-29.5 157.71-30.68ZM159.59-25.75L159.59-25.75Q164.29-25.75 164.29-21.7L164.29-21.7 164.29-5.55Q164.29-4.2 164.94-3.43 165.59-2.65 166.94-2.65 168.29-2.65 170.04-4.1L170.04-4.1 170.94-2.9Q166.94 0.75 162.94 0.75L162.94 0.75Q156.79 0.75 156.79-6.6L156.79-6.6 156.79-23.35Q154.04-22.65 152.59-20.9L152.59-20.9 151.24-22.45Q152.69-23.95 154.91-24.85 157.14-25.75 159.59-25.75ZM176.86-3.08Q173.19-6.9 173.19-12.5 173.19-18.1 176.86-21.93 180.53-25.75 186.44-25.75 192.34-25.75 196.01-21.93 199.69-18.1 199.69-12.5 199.69-6.9 196.01-3.08 192.34 0.75 186.44 0.75 180.53 0.75 176.86-3.08ZM182.34-20.53Q180.94-17.4 180.94-12.5 180.94-7.6 182.34-4.48 183.74-1.35 186.49-1.35 189.24-1.35 190.63-4.48 192.03-7.6 192.03-12.5 192.03-17.4 190.63-20.53 189.24-23.65 186.49-23.65 183.74-23.65 182.34-20.53ZM216.63-22.7L216.63-22.7 216.63-5.55Q216.63-4 217.58-3.15 218.53-2.3 220.23-2.3 221.93-2.3 223.53-3.7 225.13-5.1 225.13-7.35L225.13-7.35 225.13-25 232.63-25 232.63-5.55Q232.63-4.2 233.28-3.43 233.93-2.65 235.28-2.65 236.63-2.65 238.38-4.1L238.38-4.1 239.28-2.9Q235.28 0.75 231.13 0.75 226.98 0.75 225.63-2.95L225.63-2.95Q223.68-0.9 221.61-0.08 219.53 0.75 216.31 0.75 213.08 0.75 211.11-1.23 209.13-3.2 209.13-6.6L209.13-6.6 209.13-23.35Q206.38-22.65 204.93-20.9L204.93-20.9 203.58-22.45Q205.03-23.95 207.26-24.85 209.48-25.75 211.66-25.75 213.83-25.75 215.23-24.88 216.63-24 216.63-22.7ZM247.03-20.9L247.03-20.9Q245.83-22.75 245.83-24.2 245.83-25.65 246.96-26.78 248.08-27.9 249.68-27.9 251.28-27.9 252.41-26.78 253.53-25.65 253.53-24.1 253.53-22.55 251.98-20.8L251.98-20.8Q256.08-17.8 258.28-14.93 260.48-12.05 260.48-8.28 260.48-4.5 257.63-1.88 254.78 0.75 249.53 0.75L249.53 0.75Q247.13 0.75 244.71-0.3 242.28-1.35 241.03-2.9L241.03-2.9 242.18-4.1Q244.38-2.35 246.93-2.35 249.48-2.35 251.1-3.73 252.73-5.1 252.73-8L252.73-8Q252.73-12.6 249.33-17.6L249.33-17.6 241.78-8.15 240.53-9.25Q244.33-15.4 247.03-20.9Z" opacity="1" transform="matrix(1,0,0,1,0,0)" fill="#000000" class="wordmark-text-0" data-fill-palette-color="primary" id="text-0"></path></svg></g></svg></g></svg></g></svg></g><g></g></svg></g></svg></g></svg></g><defs></defs></svg><rect width="375.07953" height="126.08040999999999" fill="none" stroke="none" visibility="hidden"></rect></g></svg></g></svg>